<?xml version="1.0" encoding="UTF-8"?>
<svg version="1.1" xmlns="http://www.w3.org/2000/svg" width="231" height="218">
<path d="M0 0 C76.23 0 152.46 0 231 0 C231 71.94 231 143.88 231 218 C154.77 218 78.54 218 0 218 C0 146.06 0 74.12 0 0 Z " fill="#DC4126" transform="translate(0,0)"/>
<path d="M0 0 C76.23 0 152.46 0 231 0 C231 71.94 231 143.88 231 218 C154.77 218 78.54 218 0 218 C0 146.06 0 74.12 0 0 Z M48 38 C48 38.66 48 39.32 48 40 C47.41992188 40.2371875 46.83984375 40.474375 46.2421875 40.71875 C38.844039 44.94626343 34.01428674 54.72840631 30 62 C29.56945313 62.75539062 29.13890625 63.51078125 28.6953125 64.2890625 C17.07928536 85.86168433 15.44281066 112.77384195 22.40576172 136.09375 C22.69990967 137.03734375 22.69990967 137.03734375 23 138 C23.36222656 139.1653125 23.72445313 140.330625 24.09765625 141.53125 C32.92572236 166.66879418 52.50076053 186.0078025 76.16796875 197.4296875 C97.28459115 206.55726493 122.17567659 208.39521775 144 201 C145.72089844 200.42185547 145.72089844 200.42185547 147.4765625 199.83203125 C158.46181777 195.85727261 168.08876991 190.54979216 177 183 C178.2375 181.96359375 178.2375 181.96359375 179.5 180.90625 C197.19717871 165.58308306 209.11402348 143.33033123 212 120 C213.78521407 93.2630315 207.65992235 66.71980989 190 46 C181.19797966 35.97040693 171.71828482 28.3727318 160 22 C159.36827881 21.6486499 158.73655762 21.2972998 158.08569336 20.93530273 C152.9994418 18.2300388 147.8922719 16.68212041 142.3125 15.3125 C141.48427734 15.10044922 140.65605469 14.88839844 139.80273438 14.66992188 C106.76681252 6.2853044 72.88949042 14.36220542 48 38 Z " fill="#FEFEFD" transform="translate(0,0)"/>
<path d="M0 0 C0.33 0 0.66 0 1 0 C1.6791789 6.85875035 -0.72379023 11.97355759 -3.4375 18.1875 C-4.27176219 20.13837039 -5.10388183 22.09015877 -5.93359375 24.04296875 C-6.30540771 24.89914795 -6.67722168 25.75532715 -7.06030273 26.63745117 C-7.90161239 28.75263785 -8.51295177 30.7802272 -9 33 C-7.68 33 -6.36 33 -5 33 C-4.690625 32.195625 -4.38125 31.39125 -4.0625 30.5625 C-3 28 -3 28 -2 27 C-1.73035819 25.6078276 -1.4842647 24.21106024 -1.25 22.8125 C-0.19551913 17.9150222 1.32878656 15.41508227 5 12 C7.5 10.8125 7.5 10.8125 10 11 C12.8125 13.25 12.8125 13.25 15 16 C15 16.99 15 17.98 15 19 C19.43379675 16.78310162 21.46636932 14.22271781 24 10 C24.99 10.495 24.99 10.495 26 11 C25.35731596 15.45143264 24.29333357 19.58881647 22.9375 23.875 C22.57527344 25.02742188 22.21304688 26.17984375 21.83984375 27.3671875 C21.42412109 28.67042969 21.42412109 28.67042969 21 30 C25.23437983 26.45227636 27.04310005 22.17874322 29.25 17.25 C29.61351562 16.45722656 29.97703125 15.66445312 30.3515625 14.84765625 C31.2423196 12.90205521 32.12224953 10.95150346 33 9 C33.99 9.33 34.98 9.66 36 10 C35.35731596 14.45143264 34.29333357 18.58881647 32.9375 22.875 C32.57527344 24.02742188 32.21304688 25.17984375 31.83984375 26.3671875 C31.42412109 27.67042969 31.42412109 27.67042969 31 29 C36.38134538 23.90188333 38.09115844 20.24949147 39.4375 13.12109375 C40 11 40 11 42 8 C42.66 8 43.32 8 44 8 C43.55804697 15.95515447 40.88204939 23.11277395 35.5 29.125 C33 31 33 31 30.3125 31.4375 C28 31 28 31 26 29 C25.608125 29.515625 25.21625 30.03125 24.8125 30.5625 C24.214375 31.036875 23.61625 31.51125 23 32 C20.3125 31.6875 20.3125 31.6875 18 31 C18 27.7 18 24.4 18 21 C17.01 21 16.02 21 15 21 C14.773125 22.051875 14.54625 23.10375 14.3125 24.1875 C13.14496892 28.20446006 11.39199457 30.45600407 8 33 C3.85775694 33.57991403 2.51824511 33.34549674 -1 31 C-1.7734375 32.0209375 -1.7734375 32.0209375 -2.5625 33.0625 C-5 35 -5 35 -8.625 34.75 C-9.73875 34.5025 -10.8525 34.255 -12 34 C-12.66 34 -13.32 34 -14 34 C-14.66 34.66 -15.32 35.32 -16 36 C-18.375 36.125 -18.375 36.125 -21 36 C-22.32 36 -23.64 36 -25 36 C-25.33 36.33 -25.66 36.66 -26 37 C-28.9375 37.1875 -28.9375 37.1875 -32 37 C-34 35 -34 35 -34.08203125 32.828125 C-33.53649182 27.60992173 -32.77200392 23.57983257 -30 19 C-36.93271162 24.04197209 -39.56009312 29.86697705 -42 38 C-47.445 38.495 -47.445 38.495 -53 39 C-53.66 38.01 -54.32 37.02 -55 36 C-55.556875 36.66 -56.11375 37.32 -56.6875 38 C-59 40 -59 40 -61.6875 40.3125 C-64 40 -64 40 -65 39 C-65.96094959 30.6260107 -63.09376661 25.20064305 -59 18 C-58.34 18.33 -57.68 18.66 -57 19 C-56.70195315 23.90287065 -57.65157494 27.3463586 -59.5 31.875 C-59.9640625 33.02742188 -60.428125 34.17984375 -60.90625 35.3671875 C-61.2671875 36.23601562 -61.628125 37.10484375 -62 38 C-56.62468978 35.60366415 -55.08791275 32.02246023 -52.75 26.9375 C-52.399375 26.20466797 -52.04875 25.47183594 -51.6875 24.71679688 C-50.78017255 22.81664381 -49.88897663 20.9088073 -49 19 C-48.67 18.34 -48.34 17.68 -48 17 C-47.34 17 -46.68 17 -46 17 C-45.55073391 22.3911931 -46.44690508 25.41770039 -49.04296875 30.1328125 C-50.19179869 32.37420316 -50.68848327 34.50786612 -51 37 C-48.54753779 36.53171687 -48.54753779 36.53171687 -46 35 C-44.69826942 32.49056904 -43.72558139 30.26668204 -42.8125 27.625 C-39.70157691 19.14509476 -39.70157691 19.14509476 -38 16 C-37.34 16 -36.68 16 -36 16 C-35.67 17.32 -35.34 18.64 -35 20 C-34.2575 19.154375 -33.515 18.30875 -32.75 17.4375 C-31.8425 16.633125 -30.935 15.82875 -30 15 C-27.828125 15.34765625 -27.828125 15.34765625 -26 16 C-26.11509661 17.41750563 -26.24253658 18.83401169 -26.375 20.25 C-26.44460937 21.03890625 -26.51421875 21.8278125 -26.5859375 22.640625 C-27.01806215 25.10292019 -27.84610999 26.80039716 -29 29 C-29.38290462 30.99110401 -29.72604615 32.99100513 -30 35 C-27.49417159 34.10356857 -27.49417159 34.10356857 -25 32 C-24.11489363 29.84419637 -23.52089823 27.66641562 -22.8828125 25.42578125 C-21.28584527 21.03765448 -18.26744361 16.1337218 -14 14 C-11.6670134 13.95977609 -9.33293334 13.95679753 -7 14 C-6.66226563 13.24074219 -6.32453125 12.48148438 -5.9765625 11.69921875 C-5.53054687 10.70535156 -5.08453125 9.71148437 -4.625 8.6875 C-4.18414062 7.70136719 -3.74328125 6.71523437 -3.2890625 5.69921875 C-2 3 -2 3 0 0 Z " fill="#F4ECE7" transform="translate(128,85)"/>
<path d="M0 0 C5.60461531 0.42089996 10.72086547 0.91613111 16 3 C15.6875 4.875 15.6875 4.875 15 7 C14.01 7.66 13.02 8.32 12 9 C12 7.35 12 5.7 12 4 C11.34 4 10.68 4 10 4 C9.7525 4.78375 9.505 5.5675 9.25 6.375 C7.93799176 10.17982391 6.40282254 13.84311436 4.8046875 17.53515625 C3.94597724 20.16547747 3.85303498 22.25175406 4 25 C4.66 25.33 5.32 25.66 6 26 C6.04125 25.21625 6.0825 24.4325 6.125 23.625 C7.80149711 16.67951197 11.8331335 10.86425176 17 6 C17.66 6.33 18.32 6.66 19 7 C18.566875 7.8353125 18.566875 7.8353125 18.125 8.6875 C15.48015494 14.12412596 14.56123247 17.96694649 15 24 C18.33200185 24.41771804 18.33200185 24.41771804 22 24 C24.85471656 21.29553168 26.42105044 18.90790955 27 15 C26.34 15 25.68 15 25 15 C24.896875 15.763125 24.79375 16.52625 24.6875 17.3125 C23.94932885 20.19807812 23.37859197 21.26179817 21 23 C20.01 23 19.02 23 18 23 C17.72492343 19.24062017 17.97346815 17.06080217 19.5 13.5625 C21.1167786 9.72265084 21.08056017 7.10856857 21 3 C21.66 2.34 22.32 1.68 23 1 C23.2475 2.423125 23.2475 2.423125 23.5 3.875 C24.62222102 7.08126412 24.62222102 7.08126412 26.9140625 7.84375 C28.92184864 8.32618625 30.96141284 8.67119562 33 9 C33 13.95 33 18.9 33 24 C30.36 24 27.72 24 25 24 C25 31.92 25 39.84 25 48 C21.04 48 17.08 48 13 48 C12.67 45.03 12.34 42.06 12 39 C15 40 15 40 16.1875 42.0625 C16.455625 42.701875 16.72375 43.34125 17 44 C16.34 44 15.68 44 15 44 C15 44.66 15 45.32 15 46 C16.65 46 18.3 46 20 46 C20.144375 45.071875 20.28875 44.14375 20.4375 43.1875 C21 40 21 40 22 37 C21.0925 37.185625 20.185 37.37125 19.25 37.5625 C16.20862587 37.97191575 14.84883123 37.75968833 12 37 C10.02 37.495 10.02 37.495 8 38 C7.67 41.3 7.34 44.6 7 48 C5.02 48 3.04 48 1 48 C1 47.34 1 46.68 1 46 C0.01 46 -0.98 46 -2 46 C-2 44.02 -2 42.04 -2 40 C-1.34 40.33 -0.68 40.66 0 41 C0 41.99 0 42.98 0 44 C0.66 44 1.32 44 2 44 C2 44.66 2 45.32 2 46 C2.66 46 3.32 46 4 46 C3.67 42.04 3.34 38.08 3 34 C1.68 33.67 0.36 33.34 -1 33 C-1 32.34 -1 31.68 -1 31 C-1.928125 31.309375 -1.928125 31.309375 -2.875 31.625 C-3.57625 31.74875 -4.2775 31.8725 -5 32 C-5.66 31.34 -6.32 30.68 -7 30 C-6.54109375 29.39414063 -6.0821875 28.78828125 -5.609375 28.1640625 C-0.29188325 20.90278175 3.39326976 13.90002538 5 5 C4.01 5.33 3.02 5.66 2 6 C1.34 4.02 0.68 2.04 0 0 Z " fill="#CA2D2B" transform="translate(167,88)"/>
<path d="M0 0 C0.33 0 0.66 0 1 0 C1.80456262 7.19980394 -1.05699607 12.86176227 -3.875 19.375 C-4.33519531 20.47972656 -4.79539063 21.58445312 -5.26953125 22.72265625 C-8.72336066 30.86168033 -8.72336066 30.86168033 -11 32 C-12.70701221 26.10304872 -10.95193635 21.58011183 -9 16 C-15.11826504 20.4496473 -18.15624796 25.06249047 -19.75 32.5 C-19.8325 33.325 -19.915 34.15 -20 35 C-20.804375 35.144375 -21.60875 35.28875 -22.4375 35.4375 C-24.92103706 35.74135249 -24.92103706 35.74135249 -26 37 C-28.9375 37.1875 -28.9375 37.1875 -32 37 C-34 35 -34 35 -34.08203125 32.828125 C-33.53649182 27.60992173 -32.77200392 23.57983257 -30 19 C-36.93271162 24.04197209 -39.56009312 29.86697705 -42 38 C-47.445 38.495 -47.445 38.495 -53 39 C-53.66 38.01 -54.32 37.02 -55 36 C-55.556875 36.66 -56.11375 37.32 -56.6875 38 C-59 40 -59 40 -61.6875 40.3125 C-64 40 -64 40 -65 39 C-65.96094959 30.6260107 -63.09376661 25.20064305 -59 18 C-58.34 18.33 -57.68 18.66 -57 19 C-56.70195315 23.90287065 -57.65157494 27.3463586 -59.5 31.875 C-59.9640625 33.02742188 -60.428125 34.17984375 -60.90625 35.3671875 C-61.2671875 36.23601562 -61.628125 37.10484375 -62 38 C-56.62468978 35.60366415 -55.08791275 32.02246023 -52.75 26.9375 C-52.399375 26.20466797 -52.04875 25.47183594 -51.6875 24.71679688 C-50.78017255 22.81664381 -49.88897663 20.9088073 -49 19 C-48.67 18.34 -48.34 17.68 -48 17 C-47.34 17 -46.68 17 -46 17 C-45.55073391 22.3911931 -46.44690508 25.41770039 -49.04296875 30.1328125 C-50.19179869 32.37420316 -50.68848327 34.50786612 -51 37 C-48.54753779 36.53171687 -48.54753779 36.53171687 -46 35 C-44.69826942 32.49056904 -43.72558139 30.26668204 -42.8125 27.625 C-39.70157691 19.14509476 -39.70157691 19.14509476 -38 16 C-37.34 16 -36.68 16 -36 16 C-35.67 17.32 -35.34 18.64 -35 20 C-34.2575 19.154375 -33.515 18.30875 -32.75 17.4375 C-31.8425 16.633125 -30.935 15.82875 -30 15 C-27.828125 15.34765625 -27.828125 15.34765625 -26 16 C-26.11509661 17.41750563 -26.24253658 18.83401169 -26.375 20.25 C-26.44460937 21.03890625 -26.51421875 21.8278125 -26.5859375 22.640625 C-27.01806215 25.10292019 -27.84610999 26.80039716 -29 29 C-29.38290462 30.99110401 -29.72604615 32.99100513 -30 35 C-27.49417159 34.10356857 -27.49417159 34.10356857 -25 32 C-24.11489363 29.84419637 -23.52089823 27.66641562 -22.8828125 25.42578125 C-21.28584527 21.03765448 -18.26744361 16.1337218 -14 14 C-11.6670134 13.95977609 -9.33293334 13.95679753 -7 14 C-6.66226563 13.24074219 -6.32453125 12.48148438 -5.9765625 11.69921875 C-5.53054687 10.70535156 -5.08453125 9.71148437 -4.625 8.6875 C-4.18414062 7.70136719 -3.74328125 6.71523437 -3.2890625 5.69921875 C-2 3 -2 3 0 0 Z " fill="#F6EEE7" transform="translate(128,85)"/>
<path d="M0 0 C0.33 0 0.66 0 1 0 C1.33 2.31 1.66 4.62 2 7 C5.37462715 6.45276317 7.08235 5.9451 10 4 C10.33 4.99 10.66 5.98 11 7 C13.31 6.34 15.62 5.68 18 5 C17.34 6.32 16.68 7.64 16 9 C18.475 9.495 18.475 9.495 21 10 C21 10.66 21 11.32 21 12 C22.32 12.33 23.64 12.66 25 13 C25.98248524 17.0527516 26.08159574 20.83861737 26 25 C25.34 25 24.68 25 24 25 C24 24.34 24 23.68 24 23 C23.01 23.33 22.02 23.66 21 24 C21 22.68 21 21.36 21 20 C20.67 21.98 20.34 23.96 20 26 C20.66 26.33 21.32 26.66 22 27 C19.36 27 16.72 27 14 27 C13.67 26.34 13.34 25.68 13 25 C11.35 25 9.7 25 8 25 C8.020625 23.80375 8.04125 22.6075 8.0625 21.375 C8.06882571 17.81995131 7.69888875 14.49444376 7 11 C5.88625 11.20625 4.7725 11.4125 3.625 11.625 C2.42875 11.74875 1.2325 11.8725 0 12 C-0.66 11.34 -1.32 10.68 -2 10 C-1.67 9.67 -1.34 9.34 -1 9 C-0.76807135 7.48530552 -0.58784762 5.96245438 -0.4375 4.4375 C-0.35371094 3.61121094 -0.26992187 2.78492187 -0.18359375 1.93359375 C-0.12300781 1.29550781 -0.06242188 0.65742187 0 0 Z " fill="#D0302B" transform="translate(145,109)"/>
<path d="M0 0 C1.875 1.6875 1.875 1.6875 3 4 C2.80061318 8.58589694 1.18444471 12.011014 -1 16 C-1.99 15.67 -2.98 15.34 -4 15 C-3.49202991 10.6822542 -2.80317221 6.96697886 -1 3 C-6.58828999 4.35473697 -9.87755216 8.41926608 -13 13 C-14.41763857 16.09264667 -14.41763857 16.09264667 -13 19 C-9.85211382 21.37864537 -6.51895382 23.2279554 -3 25 C-3.125 28.3125 -3.125 28.3125 -4 32 C-7.4515225 34.69387122 -9.5662115 35 -13.9375 35 C-18.56686621 34.20613951 -21.46427923 32.02009482 -25 29 C-25 28.34 -25 27.68 -25 27 C-18.375 27.75 -18.375 27.75 -15 30 C-12.72087062 30.45394552 -12.72087062 30.45394552 -10.3125 30.625 C-9.50425781 30.69976562 -8.69601563 30.77453125 -7.86328125 30.8515625 C-7.24839844 30.90054688 -6.63351563 30.94953125 -6 31 C-7.26649822 27.20050535 -8.50055794 26.89352331 -11.9375 25 C-15.31703187 23.13274786 -16.82061455 22.26907817 -19 19 C-19.80197892 14.07355807 -18.3909703 10.96431934 -15.69140625 6.97265625 C-11.44965728 2.02558182 -6.63739763 -2.15326947 0 0 Z " fill="#F6EBE3" transform="translate(62,93)"/>
<path d="M0 0 C1.32 0 2.64 0 4 0 C3.855625 0.680625 3.71125 1.36125 3.5625 2.0625 C2.93054091 5.36273082 2.45686059 8.67144426 2 12 C2.66 12.33 3.32 12.66 4 13 C4.28875 12.05125 4.5775 11.1025 4.875 10.125 C6 7 6 7 8 5 C8.99 5 9.98 5 11 5 C12 8 12 8 11.00390625 10.27734375 C10.52824219 11.15519531 10.05257812 12.03304687 9.5625 12.9375 C6.59729258 19.06450318 6.47401389 24.30244353 7 31 C7.66 31.33 8.32 31.66 9 32 C7.741875 32.04125 6.48375 32.0825 5.1875 32.125 C4.47980469 32.14820313 3.77210937 32.17140625 3.04296875 32.1953125 C1 32 1 32 -2 30 C-1.01 29.67 -0.02 29.34 1 29 C1 26.69 1 24.38 1 22 C0.36191406 21.65066406 -0.27617188 21.30132812 -0.93359375 20.94140625 C-1.75988281 20.48636719 -2.58617187 20.03132813 -3.4375 19.5625 C-4.26121094 19.11003906 -5.08492187 18.65757813 -5.93359375 18.19140625 C-8 17 -8 17 -9 16 C-9.5 13.4375 -9.5 13.4375 -9 10 C-6.38208325 6.30613317 -3.19258741 3.19258741 0 0 Z " fill="#E65127" transform="translate(57,96)"/>
<path d="M0 0 C0.99 0 1.98 0 3 0 C2.9278125 0.84304687 2.855625 1.68609375 2.78125 2.5546875 C2.6884375 3.65039062 2.595625 4.74609375 2.5 5.875 C2.4071875 6.96554688 2.314375 8.05609375 2.21875 9.1796875 C2.09437042 10.78329564 2 12.39157551 2 14 C4.64 13.67 7.28 13.34 10 13 C10.84888195 18.37625234 11.0024305 22.65370398 10 28 C11.65 28 13.3 28 15 28 C15.33 27.34 15.66 26.68 16 26 C16 27.32 16 28.64 16 30 C8.41 30 0.82 30 -7 30 C-7 29.34 -7 28.68 -7 28 C-5.35 28 -3.7 28 -2 28 C-1.67 26.68 -1.34 25.36 -1 24 C-0.34 24 0.32 24 1 24 C1.66 23.34 2.32 22.68 3 22 C3 23.98 3 25.96 3 28 C3.66 28 4.32 28 5 28 C5 26.02 5 24.04 5 22 C3.948125 22.04125 2.89625 22.0825 1.8125 22.125 C-1.74010173 22.00852125 -3.84866641 21.52791932 -7 20 C-7 19.34 -7 18.68 -7 18 C-6.01 17.34 -5.02 16.68 -4 16 C-6.31 15.01 -8.62 14.02 -11 13 C-10.4225 12.7525 -9.845 12.505 -9.25 12.25 C-3.92161924 9.28978847 -2.10651323 5.47693439 0 0 Z " fill="#CF352A" transform="translate(143,106)"/>
<path d="M0 0 C5.60461531 0.42089996 10.72086547 0.91613111 16 3 C15.6875 4.875 15.6875 4.875 15 7 C14.01 7.66 13.02 8.32 12 9 C12 7.35 12 5.7 12 4 C11.34 4 10.68 4 10 4 C9.7525 4.78375 9.505 5.5675 9.25 6.375 C7.93799176 10.17982391 6.40282254 13.84311436 4.8046875 17.53515625 C3.94597724 20.16547747 3.85303498 22.25175406 4 25 C4.66 25.33 5.32 25.66 6 26 C6.04125 25.21625 6.0825 24.4325 6.125 23.625 C7.80149711 16.67951197 11.8331335 10.86425176 17 6 C17.66 6.33 18.32 6.66 19 7 C17.68 9.97 16.36 12.94 15 16 C14.34 16 13.68 16 13 16 C12.67 18.31 12.34 20.62 12 23 C11.34 23 10.68 23 10 23 C10.350625 24.11375 10.70125 25.2275 11.0625 26.375 C12 30 12 30 11 32 C12.32 32.33 13.64 32.66 15 33 C12 34 12 34 9 33 C7.8125 30.9375 7.8125 30.9375 7 29 C7.66 28.01 8.32 27.02 9 26 C7.02 26.99 5.04 27.98 3 29 C3.33 29.99 3.66 30.98 4 32 C3.01 32 2.02 32 1 32 C1 31.01 1 30.02 1 29 C0.34 29 -0.32 29 -1 29 C-1 28.34 -1 27.68 -1 27 C-1.99 27 -2.98 27 -4 27 C-2.95274513 24.88609666 -1.8870593 22.78715021 -0.78125 20.703125 C1.93690738 15.49884806 3.82766064 10.75512051 5 5 C4.01 5.33 3.02 5.66 2 6 C1.34 4.02 0.68 2.04 0 0 Z " fill="#CF3A32" transform="translate(167,88)"/>
<path d="M0 0 C5.28 0 10.56 0 16 0 C16 1.65 16 3.3 16 5 C15.01 5 14.02 5 13 5 C7.03517487 5.27743373 3.22001259 8.00356424 -1 12 C-3.66864932 16.00297398 -4.81650486 19.20303392 -4 24 C-0.66278173 28.24736871 3.30785934 30.51592553 8 33 C8 33.99 8 34.98 8 36 C6.64776973 36.11038614 5.29274851 36.18664949 3.9375 36.25 C3.18339844 36.29640625 2.42929687 36.3428125 1.65234375 36.390625 C-1 36 -1 36 -8 32 C-8 24.08 -8 16.16 -8 8 C-5.36 7.67 -2.72 7.34 0 7 C0 5.68 0 4.36 0 3 C0 2.01 0 1.02 0 0 Z " fill="#EB5323" transform="translate(48,88)"/>
<path d="M0 0 C0.66 0 1.32 0 2 0 C1.55804697 7.95515447 -1.11795061 15.11277395 -6.5 21.125 C-9 23 -9 23 -11.6875 23.4375 C-14 23 -14 23 -16 21 C-16.391875 21.515625 -16.78375 22.03125 -17.1875 22.5625 C-17.785625 23.036875 -18.38375 23.51125 -19 24 C-21.6875 23.6875 -21.6875 23.6875 -24 23 C-24 19.7 -24 16.4 -24 13 C-24.99 13 -25.98 13 -27 13 C-27 12.34 -27 11.68 -27 11 C-26.2575 10.5875 -25.515 10.175 -24.75 9.75 C-21.44959074 7.64973956 -19.99378652 5.32297754 -18 2 C-17.34 2.33 -16.68 2.66 -16 3 C-16.64268404 7.45143264 -17.70666643 11.58881647 -19.0625 15.875 C-19.42472656 17.02742188 -19.78695312 18.17984375 -20.16015625 19.3671875 C-20.43730469 20.23601562 -20.71445313 21.10484375 -21 22 C-16.76562017 18.45227636 -14.95689995 14.17874322 -12.75 9.25 C-12.20472656 8.06083984 -12.20472656 8.06083984 -11.6484375 6.84765625 C-10.7576804 4.90205521 -9.87775047 2.95150346 -9 1 C-8.01 1.33 -7.02 1.66 -6 2 C-6.64268404 6.45143264 -7.70666643 10.58881647 -9.0625 14.875 C-9.42472656 16.02742188 -9.78695312 17.17984375 -10.16015625 18.3671875 C-10.43730469 19.23601562 -10.71445313 20.10484375 -11 21 C-5.61865462 15.90188333 -3.90884156 12.24949147 -2.5625 5.12109375 C-2 3 -2 3 0 0 Z " fill="#F3E8E3" transform="translate(170,93)"/>
<path d="M0 0 C0.04254356 1.99954746 0.04080783 4.00041636 0 6 C-0.33 6.33 -0.66 6.66 -1 7 C4.445 7.495 4.445 7.495 10 8 C10 8.66 10 9.32 10 10 C11.19625 9.67 12.3925 9.34 13.625 9 C17.15791497 8.10734177 20.34079109 7.81703955 24 8 C24 8.66 24 9.32 24 10 C26.64 10 29.28 10 32 10 C32 9.34 32 8.68 32 8 C34.5625718 7.97289877 37.12485365 7.95311229 39.6875 7.9375 C40.7693457 7.92493164 40.7693457 7.92493164 41.87304688 7.91210938 C45.71555382 7.89456368 49.26639526 8.06475779 53 9 C41.71713936 16.5219071 21.23387337 14.30555324 8.55224609 11.81787109 C0.40925502 9.98050555 -7.331677 7.30577882 -15 4 C-10.08185077 0.12981084 -6.1993289 -0.14417044 0 0 Z " fill="#C73034" transform="translate(88,192)"/>
<path d="M0 0 C2.3125 0.1875 2.3125 0.1875 4 1 C4.3755711 6.13280498 3.07583471 9.35013025 1 14 C0.60235737 15.98821313 0.24544834 17.98732362 0 20 C3.16717283 18.41641358 4.73268318 17.54736301 6.3125 14.3125 C6.539375 13.549375 6.76625 12.78625 7 12 C7.66 12 8.32 12 9 12 C8.69393785 15.3666837 8.2999963 17.56154387 6.375 20.375 C3.14072698 22.58792365 0.8325706 22.36156326 -3 22 C-4 21 -4 21 -4.3125 17.5 C-4.28492284 12.42580297 -2.29972645 8.43518673 0 4 C-4.11222583 6.90233626 -6.11313656 9.52447684 -8.25 14.0625 C-8.75015625 15.10535156 -9.2503125 16.14820313 -9.765625 17.22265625 C-11.0538688 20.00106609 -11.0538688 20.00106609 -12 23 C-12.99 22.67 -13.98 22.34 -15 22 C-14.69196223 14.14503688 -11.46909516 7.95940803 -8 1 C-7.34 1 -6.68 1 -6 1 C-5.67 2.32 -5.34 3.64 -5 5 C-4.2575 4.154375 -3.515 3.30875 -2.75 2.4375 C-1.38875 1.2309375 -1.38875 1.2309375 0 0 Z " fill="#F5EEE9" transform="translate(185,91)"/>
<path d="M0 0 C0.33 0 0.66 0 1 0 C1 5.28 1 10.56 1 16 C-1.64 16 -4.28 16 -7 16 C-6.98839844 16.73605469 -6.97679687 17.47210938 -6.96484375 18.23046875 C-6.95582031 19.20628906 -6.94679688 20.18210937 -6.9375 21.1875 C-6.92589844 22.15042969 -6.91429687 23.11335938 -6.90234375 24.10546875 C-6.99513378 26.85576513 -7.37888315 29.32479591 -8 32 C-8.763125 31.9175 -9.52625 31.835 -10.3125 31.75 C-13.14583333 31.70833333 -13.14583333 31.70833333 -14.8125 34 C-15.204375 34.66 -15.59625 35.32 -16 36 C-15.34499476 22.68156011 -7.98479767 10.42459696 0 0 Z " fill="#ED5F24" transform="translate(39,48)"/>
<path d="M0 0 C-0.99 0.33 -1.98 0.66 -3 1 C-3.66 3.31 -4.32 5.62 -5 8 C-9.95 8 -14.9 8 -20 8 C-20 10.64 -20 13.28 -20 16 C-24.62 16 -29.24 16 -34 16 C-29.94396844 7.88793688 -19.66202358 4.64412581 -11.5 1.5 C-10.8179248 1.23268066 -10.13584961 0.96536133 -9.43310547 0.68994141 C-3.48533727 -1.49371597 -3.48533727 -1.49371597 0 0 Z " fill="#EE6125" transform="translate(92,16)"/>
<path d="M0 0 C0.99 0 1.98 0 3 0 C2.814375 0.886875 2.62875 1.77375 2.4375 2.6875 C2.01488496 5.88729962 2.32957 7.89926124 3 11 C2.67 11.99 2.34 12.98 2 14 C2.31802943 15.66965451 2.64984951 17.33678518 3 19 C2.67 19.33 2.34 19.66 2 20 C1.63239269 22.32817964 1.29758419 24.6618385 1 27 C1.66 27 2.32 27 3 27 C3.02690844 29.62506802 3.04679404 32.24986173 3.0625 34.875 C3.07087891 35.62136719 3.07925781 36.36773437 3.08789062 37.13671875 C3.11328125 42.7734375 3.11328125 42.7734375 2 45 C1.34 45 0.68 45 0 45 C-1.91925819 37.26285378 -2.30511551 29.88791224 -2.25 21.9375 C-2.25773437 20.81794922 -2.26546875 19.69839844 -2.2734375 18.54492188 C-2.25819251 12.04674297 -1.67509707 6.281614 0 0 Z " fill="#EA551E" transform="translate(21,85)"/>
<path d="M0 0 C4.62 0 9.24 0 14 0 C14 0.66 14 1.32 14 2 C8.26374365 6.51983609 1.62191633 9.84354687 -4.9375 13 C-5.5756665 13.31477295 -6.21383301 13.6295459 -6.87133789 13.95385742 C-9.56599767 15.20893866 -11.44788264 16.07067102 -14.44140625 15.6875 C-14.95574219 15.460625 -15.47007812 15.23375 -16 15 C-16 12.69 -16 10.38 -16 8 C-8.25 7.875 -8.25 7.875 -6 9 C-3.64018187 8.06421005 -1.30368736 7.06652192 1 6 C0.67 4.02 0.34 2.04 0 0 Z " fill="#C12430" transform="translate(160,184)"/>
<path d="M0 0 C2.31 0 4.62 0 7 0 C6.49565259 5.70357587 4.90076374 9.89349255 2.25 14.9375 C1.89091553 15.63681641 1.53183105 16.33613281 1.16186523 17.05664062 C-1.33218624 21.86223835 -3.92971862 26.53413618 -7 31 C-7.33 31 -7.66 31 -8 31 C-8.10251672 25.87416389 -8.03590199 21.05002222 -7 16 C-4.69 16 -2.38 16 0 16 C0 10.72 0 5.44 0 0 Z " fill="#C02531" transform="translate(200,136)"/>
<path d="M0 0 C1.14662109 -0.01611328 2.29324219 -0.03222656 3.47460938 -0.04882812 C11.28771455 -0.0532498 18.20908885 1.06156723 25.6875 3.3125 C22.47228721 4.26575167 19.57002632 4.44134944 16.22265625 4.4453125 C15.17529297 4.44660156 14.12792969 4.44789062 13.04882812 4.44921875 C11.96021484 4.44535156 10.87160156 4.44148438 9.75 4.4375 C8.66525391 4.44136719 7.58050781 4.44523437 6.46289062 4.44921875 C5.41423828 4.44792969 4.36558594 4.44664063 3.28515625 4.4453125 C2.33133057 4.44418457 1.37750488 4.44305664 0.39477539 4.44189453 C-2.26985409 4.31453827 -4.70463097 3.84526038 -7.3125 3.3125 C-9.34069069 3.71277656 -9.34069069 3.71277656 -11.3125 4.3125 C-12.85129581 4.42541505 -14.39462089 4.48709967 -15.9375 4.5 C-17.10152344 4.52126953 -17.10152344 4.52126953 -18.2890625 4.54296875 C-20.3125 4.3125 -20.3125 4.3125 -22.3125 2.3125 C-14.79907399 0.30411882 -7.75737778 -0.02158425 0 0 Z " fill="#EC5622" transform="translate(114.3125,11.6875)"/>
<path d="M0 0 C0.33 0.66 0.66 1.32 1 2 C1.66 2 2.32 2 3 2 C3 1.34 3 0.68 3 0 C4.65 0 6.3 0 8 0 C8.125 5.75 8.125 5.75 7 8 C7.29259485 10.00636471 7.62633887 12.00714063 8 14 C8 14.66 8 15.32 8 16 C9.423125 15.9690625 9.423125 15.9690625 10.875 15.9375 C14 16 14 16 16 17 C16 19.31 16 21.62 16 24 C15.01 23.34 14.02 22.68 13 22 C12.34 22.66 11.68 23.32 11 24 C10.67 23.01 10.34 22.02 10 21 C9.38640625 20.74863281 8.7728125 20.49726563 8.140625 20.23828125 C4.9371265 18.38516259 4.07422863 15.4811809 2.75 12.1875 C2.481875 11.57068359 2.21375 10.95386719 1.9375 10.31835938 C0.45318931 6.75525641 -0.32343816 3.85920535 0 0 Z " fill="#E84A21" transform="translate(24,136)"/>
<path d="M0 0 C0.33 0 0.66 0 1 0 C0.96519531 0.77085938 0.93039063 1.54171875 0.89453125 2.3359375 C0.86746094 3.33882813 0.84039062 4.34171875 0.8125 5.375 C0.77769531 6.37273437 0.74289063 7.37046875 0.70703125 8.3984375 C0.85205078 9.68621094 0.85205078 9.68621094 1 11 C1.99 11.66 2.98 12.32 4 13 C3.38125 13.639375 2.7625 14.27875 2.125 14.9375 C0.11083991 17.84026013 -0.38177998 19.11035226 -1 22.4375 C-1.84367689 26.86310334 -3.02508837 29.58760136 -6 33 C-7.32 33 -8.64 33 -10 33 C-9.29947051 26.33402406 -6.47528893 20.53665068 -3.8828125 14.43164062 C-1.8649434 9.56003329 -0.45822109 5.26238288 0 0 Z " fill="#D74C37" transform="translate(129,85)"/>
<path d="M0 0 C0.33 0 0.66 0 1 0 C1.33 2.31 1.66 4.62 2 7 C5.37462715 6.45276317 7.08235 5.9451 10 4 C10.33 4.99 10.66 5.98 11 7 C13.01508358 7.73323796 13.01508358 7.73323796 15 8 C14.34 8 13.68 8 13 8 C12.814375 9.27875 12.62875 10.5575 12.4375 11.875 C12.33308594 12.59429687 12.22867188 13.31359375 12.12109375 14.0546875 C11.8315703 16.08140667 11.8315703 16.08140667 13 18 C12.71758117 20.3400417 12.38749213 22.67504723 12 25 C10.68 25 9.36 25 8 25 C8.020625 23.80375 8.04125 22.6075 8.0625 21.375 C8.06882571 17.81995131 7.69888875 14.49444376 7 11 C5.88625 11.20625 4.7725 11.4125 3.625 11.625 C2.42875 11.74875 1.2325 11.8725 0 12 C-0.66 11.34 -1.32 10.68 -2 10 C-1.67 9.67 -1.34 9.34 -1 9 C-0.76807135 7.48530552 -0.58784762 5.96245438 -0.4375 4.4375 C-0.35371094 3.61121094 -0.26992187 2.78492187 -0.18359375 1.93359375 C-0.12300781 1.29550781 -0.06242188 0.65742187 0 0 Z " fill="#D43E34" transform="translate(145,109)"/>
<path d="M0 0 C0.66 0 1.32 0 2 0 C3.87317477 14.88504952 3.98056098 29.47569118 0 44 C-0.33 44 -0.66 44 -1 44 C-1 39.38 -1 34.76 -1 30 C-0.34 30 0.32 30 1 30 C0.51080078 28.34097656 0.51080078 28.34097656 0.01171875 26.6484375 C-1.24343982 21.62115631 -1.25943158 16.78135869 -1.1875 11.625 C-1.18685547 10.72394531 -1.18621094 9.82289062 -1.18554688 8.89453125 C-1.1409337 2.2818674 -1.1409337 2.2818674 0 0 Z " fill="#C72E33" transform="translate(209,90)"/>
<path d="M0 0 C0.66 0 1.32 0 2 0 C2.33 0.99 2.66 1.98 3 3 C2.34 3 1.68 3 1 3 C0.67 4.98 0.34 6.96 0 9 C-1.65 9 -3.3 9 -5 9 C-5 7 -5 5 -5 3 C-5.66 3 -6.32 3 -7 3 C-7 5.64 -7 8.28 -7 11 C-8.66611905 11.042721 -10.33382885 11.04063832 -12 11 C-13 10 -13 10 -13.09765625 7.71484375 C-13.08605469 6.79832031 -13.07445312 5.88179687 -13.0625 4.9375 C-13.05347656 4.01839844 -13.04445312 3.09929687 -13.03515625 2.15234375 C-13.02355469 1.44207031 -13.01195312 0.73179688 -13 0 C-8.33888206 -1.06539839 -4.58337628 -1.52779209 0 0 Z " fill="#C63C3F" transform="translate(187,125)"/>
<path d="M0 0 C-0.2165625 0.65226562 -0.433125 1.30453125 -0.65625 1.9765625 C-3.47776541 9.97826296 -3.47776541 9.97826296 -2 18 C-3.65 17.67 -5.3 17.34 -7 17 C-7.33 18.32 -7.66 19.64 -8 21 C-8.66 20.67 -9.32 20.34 -10 20 C-10 19.34 -10 18.68 -10 18 C-10.66 18 -11.32 18 -12 18 C-10.75250063 12.20209819 -7.48463256 0 0 0 Z " fill="#DE4E2C" transform="translate(98,104)"/>
<path d="M0 0 C3 1 3 1 4.125 2.75 C6.48359402 8.81495605 6.00706319 13.8911232 4 20 C2.52776732 22.47159591 1.11693371 23.98891298 -1 26 C-1.66 26 -2.32 26 -3 26 C-2.50216787 20.32471377 -1.29591971 16.26148268 1 11 C1.97350778 7.3634269 1.97350778 7.3634269 2 4 C0.70735301 2.03568595 0.70735301 2.03568595 -1 1 C-0.67 0.67 -0.34 0.34 0 0 Z " fill="#CA382C" transform="translate(162,88)"/>
<path d="M0 0 C-0.40672003 6.2363738 -2.35397467 11.87001288 -6 17 C-8.16796875 17.7890625 -8.16796875 17.7890625 -10 18 C-10.6640051 11.62555101 -8.87898454 8.02628982 -5 3 C-2.33108108 0 -2.33108108 0 0 0 Z " fill="#D74830" transform="translate(119,101)"/>
<path d="M0 0 C0.66 0 1.32 0 2 0 C2.33 0.99 2.66 1.98 3 3 C3.66 3.33 4.32 3.66 5 4 C4.54917531 5.46067199 4.08906463 6.91848032 3.625 8.375 C3.36976563 9.18710938 3.11453125 9.99921875 2.8515625 10.8359375 C2 13 2 13 0 15 C-1.32 15 -2.64 15 -4 15 C-4.45356243 8.53673535 -3.59378942 5.39068413 0 0 Z " fill="#D54534" transform="translate(134,101)"/>
<path d="M0 0 C1.32 0.33 2.64 0.66 4 1 C3.34 4.63 2.68 8.26 2 12 C5.16717283 10.41641358 6.73268318 9.54736301 8.3125 6.3125 C8.539375 5.549375 8.76625 4.78625 9 4 C9.66 4 10.32 4 11 4 C10.69393785 7.3666837 10.2999963 9.56154387 8.375 12.375 C5.14072698 14.58792365 2.8325706 14.36156326 -1 14 C-2 13 -2 13 -2.1875 9.25 C-2.15615249 5.76415714 -1.57760458 3.15520917 0 0 Z " fill="#F2E8E2" transform="translate(183,99)"/>
<path d="M0 0 C0.99 0 1.98 0 3 0 C3 1.32 3 2.64 3 4 C3.99 4 4.98 4 6 4 C6 6.31 6 8.62 6 11 C5.34 11 4.68 11 4 11 C4 10.34 4 9.68 4 9 C3.01 9.33 2.02 9.66 1 10 C1 8.68 1 7.36 1 6 C0.67 7.65 0.34 9.3 0 11 C-1.32 11 -2.64 11 -4 11 C-4 8.36 -4 5.72 -4 3 C-3.01 2.67 -2.02 2.34 -1 2 C-0.67 1.34 -0.34 0.68 0 0 Z " fill="#D45751" transform="translate(165,123)"/>
<path d="M0 0 C0.66 0 1.32 0 2 0 C1.55804697 7.95515447 -1.11795061 15.11277395 -6.5 21.125 C-9 23 -9 23 -11.8125 23.3125 C-12.534375 23.209375 -13.25625 23.10625 -14 23 C-13.01 22.34 -12.02 21.68 -11 21 C-5.58688657 15.98296804 -3.90122041 12.2091402 -2.5625 5.12109375 C-2 3 -2 3 0 0 Z " fill="#F3E1D8" transform="translate(170,93)"/>
<path d="M0 0 C2.10409639 -0.02701408 4.20829178 -0.04640223 6.3125 -0.0625 C7.48425781 -0.07410156 8.65601562 -0.08570313 9.86328125 -0.09765625 C13 0 13 0 16 1 C16 1.66 16 2.32 16 3 C10.39 4.32 4.78 5.64 -1 7 C-0.34 5.35 0.32 3.7 1 2 C0.67 1.34 0.34 0.68 0 0 Z " fill="#F7FCF6" transform="translate(88,9)"/>
<path d="M0 0 C0 1.98 0 3.96 0 6 C-0.99 5.67 -1.98 5.34 -3 5 C-3.7425 5.37125 -4.485 5.7425 -5.25 6.125 C-9.33507709 7.42479726 -11.25327039 5.91009745 -15 4 C-10.27844707 -0.02206361 -6.0476984 -0.14064415 0 0 Z " fill="#D13228" transform="translate(88,192)"/>
<path d="M0 0 C2.475 0.99 2.475 0.99 5 2 C4.07487334 3.98498051 3.13449763 5.96286018 2.1875 7.9375 C1.40439453 9.59072266 1.40439453 9.59072266 0.60546875 11.27734375 C-1 14 -1 14 -4 15 C-3.50341703 9.33895411 -2.45489316 5.12325529 0 0 Z " fill="#D04236" transform="translate(153,100)"/>
<path d="M0 0 C0.33 0 0.66 0 1 0 C1.05534912 0.79172607 1.11069824 1.58345215 1.16772461 2.39916992 C1.42101108 5.99552159 1.67920386 9.59150481 1.9375 13.1875 C2.02451172 14.43337891 2.11152344 15.67925781 2.20117188 16.96289062 C2.33168945 18.7659668 2.33168945 18.7659668 2.46484375 20.60546875 C2.543396 21.71043701 2.62194824 22.81540527 2.70288086 23.95385742 C2.93506533 26.95912152 2.93506533 26.95912152 3.59204102 29.69262695 C4.153925 32.87058359 3.16713191 35.04784281 2 38 C1.34 38 0.68 38 0 38 C-0.33 38.66 -0.66 39.32 -1 40 C-0.9285376 39.45939941 -0.8570752 38.91879883 -0.78344727 38.36181641 C0.15315304 30.37003912 0.1131175 22.40694657 0.0625 14.375 C0.05747197 12.97526203 0.05291138 11.5755223 0.04882812 10.17578125 C0.03713167 6.78380831 0.02074086 3.39192767 0 0 Z " fill="#F5EBE6" transform="translate(211,90)"/>
<path d="M0 0 C2.82129111 3.55187339 4.13078607 6.49589146 5 11 C4.125 13.9375 4.125 13.9375 3 16 C2.01 16 1.02 16 0 16 C-1.30267176 10.49983036 -0.71033431 5.52967941 0 0 Z " fill="#CD3F38" transform="translate(201,64)"/>
<path d="M0 0 C2 1.375 2 1.375 4 3 C4 3.66 4 4.32 4 5 C5.32 5 6.64 5 8 5 C8.66 3.35 9.32 1.7 10 0 C10.66 0.99 11.32 1.98 12 3 C10.4375 5.0625 10.4375 5.0625 8 7 C4.375 6.75 4.375 6.75 1 6 C0.34 6 -0.32 6 -1 6 C-1.66 6.66 -2.32 7.32 -3 8 C-5.625 8.125 -5.625 8.125 -8 8 C-7.67 5.69 -7.34 3.38 -7 1 C-6.67 1 -6.34 1 -6 1 C-6 2.65 -6 4.3 -6 6 C-2.26360784 4.75453595 -1.81243487 3.36595047 0 0 Z " fill="#F3DED4" transform="translate(115,113)"/>
<path d="M0 0 C0.99 0.33 1.98 0.66 3 1 C3.32019737 5.5894956 2.97413931 8.38854512 0 12 C-1.32 12 -2.64 12 -4 12 C-3.45660208 7.43545749 -2.20536179 4.0271824 0 0 Z " fill="#D44734" transform="translate(123,106)"/>
<path d="M0 0 C0.125 6.75 0.125 6.75 -1 9 C-5.10958767 7.54955729 -8.43258745 5.48889248 -12 3 C-10 2 -10 2 -7 2 C-6.67 1.34 -6.34 0.68 -6 0 C-2.49056604 -1.24528302 -2.49056604 -1.24528302 0 0 Z " fill="#CE3E2E" transform="translate(72,185)"/>
<path d="M0 0 C3 1 6 2 9 3 C9.33 3.99 9.66 4.98 10 6 C9.34 6 8.68 6 8 6 C8.99 7.485 8.99 7.485 10 9 C9.625 11.6875 9.625 11.6875 9 14 C8.34 13.67 7.68 13.34 7 13 C7.33 11.68 7.66 10.36 8 9 C7.34 9 6.68 9 6 9 C6 8.01 6 7.02 6 6 C3.69 5.67 1.38 5.34 -1 5 C-1 3 -1 3 0 2 C0 1.34 0 0.68 0 0 Z " fill="#D43926" transform="translate(186,50)"/>
<path d="M0 0 C1.32 0 2.64 0 4 0 C4 0.99 4 1.98 4 3 C4.66 3 5.32 3 6 3 C4.60667426 6.36720387 3.0210714 7.9859524 0 10 C0 8.35 0 6.7 0 5 C-0.66 5 -1.32 5 -2 5 C-2.66 6.98 -3.32 8.96 -4 11 C-4.93065133 8.39417629 -5.14917407 7.35801776 -4.0625 4.75 C-3.5365625 3.88375 -3.5365625 3.88375 -3 3 C-2.01 3 -1.02 3 0 3 C0 2.01 0 1.02 0 0 Z " fill="#E3563A" transform="translate(92,96)"/>
<path d="M0 0 C0.99 0.33 1.98 0.66 3 1 C2.45660208 5.56454251 1.20536179 8.9728176 -1 13 C-1.99 12.67 -2.98 12.34 -4 12 C-3.5317879 7.22423661 -2.75668002 3.95523655 0 0 Z " fill="#F7F3ED" transform="translate(62,96)"/>
<path d="M0 0 C0.99 0 1.98 0 3 0 C2.814375 0.886875 2.62875 1.77375 2.4375 2.6875 C2.01640684 5.87577679 2.31376037 7.91192165 3 11 C2.67 11.66 2.34 12.32 2 13 C1.34 13 0.68 13 0 13 C0 13.66 0 14.32 0 15 C-0.66 15 -1.32 15 -2 15 C-1.85879286 13.06215735 -1.71187127 11.12473045 -1.5625 9.1875 C-1.48128906 8.10855469 -1.40007813 7.02960938 -1.31640625 5.91796875 C-1 3 -1 3 0 0 Z " fill="#EC5C22" transform="translate(21,85)"/>
<path d="M0 0 C0.99 0.33 1.98 0.66 3 1 C3.66 0.67 4.32 0.34 5 0 C7 2 9 4 11 6 C10.2575 6.144375 9.515 6.28875 8.75 6.4375 C7.09622716 6.77577172 5.44732994 7.14211516 3.8125 7.5625 C2 8 2 8 0 8 C0 5.36 0 2.72 0 0 Z " fill="#E9542A" transform="translate(32,120)"/>
<path d="M0 0 C0.66 0 1.32 0 2 0 C3.66251802 5.57432514 4.18609365 9.3067505 3 15 C1.68 15 0.36 15 -1 15 C-1.10251672 9.87416389 -1.03590199 5.05002222 0 0 Z " fill="#D77A71" transform="translate(154,119)"/>
<path d="M0 0 C0.99 0.33 1.98 0.66 3 1 C3.6875 3.0625 3.6875 3.0625 4 5 C2.75579353 5.5345256 1.50429064 6.05208611 0.25 6.5625 C-0.44609375 6.85253906 -1.1421875 7.14257812 -1.859375 7.44140625 C-4.30012784 8.07831803 -5.6403655 7.80248831 -8 7 C-8 5.68 -8 4.36 -8 3 C-6.865625 2.690625 -5.73125 2.38125 -4.5625 2.0625 C-1.21224901 1.37075469 -1.21224901 1.37075469 0 0 Z " fill="#D7442D" transform="translate(104,119)"/>
<path d="M0 0 C6.435 2.97 6.435 2.97 13 6 C9.71570724 8.18952851 8.79033543 8.27734162 5 8 C3.65667272 7.70955086 2.31774196 7.39044206 1 7 C0.67 4.69 0.34 2.38 0 0 Z " fill="#F6EEEB" transform="translate(65,191)"/>
<path d="M0 0 C0.99 0.495 0.99 0.495 2 1 C2 1.99 2 2.98 2 4 C2.66 4 3.32 4 4 4 C4 4.66 4 5.32 4 6 C4.66 6 5.32 6 6 6 C6 4.02 6 2.04 6 0 C6.99 0 7.98 0 9 0 C9 2.64 9 5.28 9 8 C7.02 8 5.04 8 3 8 C3 7.34 3 6.68 3 6 C2.01 6 1.02 6 0 6 C0 4.02 0 2.04 0 0 Z " fill="#C42924" transform="translate(165,128)"/>
<path d="M0 0 C2.60567359 1.18439708 4.15740208 2.82828445 6.0625 4.9375 C5.7325 5.9275 5.4025 6.9175 5.0625 7.9375 C4.7325 7.2775 4.4025 6.6175 4.0625 5.9375 C3.0725 7.4225 3.0725 7.4225 2.0625 8.9375 C1.0725 8.6075 0.0825 8.2775 -0.9375 7.9375 C-0.6075 6.2875 -0.2775 4.6375 0.0625 2.9375 C-1.5875 2.9375 -3.2375 2.9375 -4.9375 2.9375 C-2.52240566 -0.08136792 -2.52240566 -0.08136792 0 0 Z " fill="#F4E1DA" transform="translate(136.9375,96.0625)"/>
<path d="M0 0 C0.33 0 0.66 0 1 0 C0.67 3.96 0.34 7.92 0 12 C-1.65 12 -3.3 12 -5 12 C-4.34 8.7 -3.68 5.4 -3 2 C-2.01 2 -1.02 2 0 2 C0 1.34 0 0.68 0 0 Z " fill="#F4F4F0" transform="translate(108,108)"/>
<path d="M0 0 C0.66 0.33 1.32 0.66 2 1 C1.51421457 4.12290635 1.0013988 6.99580359 0 10 C-2.0625 10.6875 -2.0625 10.6875 -4 11 C-4.65234375 9.234375 -4.65234375 9.234375 -5 7 C-4.00390625 5.078125 -4.00390625 5.078125 -2.5625 3.25 C-2.08941406 2.63640625 -1.61632812 2.0228125 -1.12890625 1.390625 C-0.75636719 0.93171875 -0.38382813 0.4728125 0 0 Z " fill="#F6F1EE" transform="translate(152,95)"/>
<path d="M0 0 C1.32 0.66 2.64 1.32 4 2 C4.83886169 4.67790463 4.81766414 7.1737941 5 10 C4.01 10.66 3.02 11.32 2 12 C1.67 10.68 1.34 9.36 1 8 C0.01 8.495 0.01 8.495 -1 9 C-0.67 6.03 -0.34 3.06 0 0 Z " fill="#F6F2EB" transform="translate(17,124)"/>
<path d="M0 0 C1.79260132 0.05995322 3.58425795 0.1487241 5.375 0.25 C6.87160156 0.31960937 6.87160156 0.31960937 8.3984375 0.390625 C11 1 11 1 12.3515625 3.046875 C12.56554687 3.69140625 12.77953125 4.3359375 13 5 C12.01 5.495 12.01 5.495 11 6 C10.34 5.67 9.68 5.34 9 5 C9 5.66 9 6.32 9 7 C8.34 7 7.68 7 7 7 C5.65080468 5.34614767 4.31866272 3.678298 3 2 C2.01 1.34 1.02 0.68 0 0 Z " fill="#D64233" transform="translate(152,89)"/>
<path d="M0 0 C0.66 0.99 1.32 1.98 2 3 C2.66 3 3.32 3 4 3 C5.17571451 6.67410785 5.07366746 10.16929183 5 14 C4.7525 13.38125 4.505 12.7625 4.25 12.125 C3.18894087 9.83862528 3.18894087 9.83862528 0.9375 9.125 C-1 8 -1 8 -1.875 5 C-1.91625 4.01 -1.9575 3.02 -2 2 C-1.34 1.34 -0.68 0.68 0 0 Z " fill="#E65730" transform="translate(55,108)"/>
<path d="M0 0 C1.1171875 1.734375 1.1171875 1.734375 2 4 C1.3203125 6.140625 1.3203125 6.140625 0.125 8.25 C-0.26429687 8.95640625 -0.65359375 9.6628125 -1.0546875 10.390625 C-1.36664063 10.92171875 -1.67859375 11.4528125 -2 12 C-3.32 11.34 -4.64 10.68 -6 10 C-6 8.35 -6 6.7 -6 5 C-4.68 4.67 -3.36 4.34 -2 4 C-2 3.34 -2 2.68 -2 2 C-1.34 2 -0.68 2 0 2 C0 1.34 0 0.68 0 0 Z " fill="#DB4B2E" transform="translate(127,80)"/>
<path d="M0 0 C0.33 1.32 0.66 2.64 1 4 C1.66 4 2.32 4 3 4 C2.25 6.4375 2.25 6.4375 1 9 C-1.125 9.8125 -1.125 9.8125 -3 10 C-3 7.69 -3 5.38 -3 3 C-2.01 2.67 -1.02 2.34 0 2 C0 1.34 0 0.68 0 0 Z " fill="#D93F27" transform="translate(112,109)"/>
<path d="M0 0 C1.32 0.66 2.64 1.32 4 2 C2.04669132 3.03041513 0.08718472 4.0490893 -1.875 5.0625 C-2.96554688 5.63097656 -4.05609375 6.19945312 -5.1796875 6.78515625 C-6.11039063 7.18605469 -7.04109375 7.58695313 -8 8 C-8.66 7.67 -9.32 7.34 -10 7 C-10 6.34 -10 5.68 -10 5 C-9.36191406 4.72285156 -8.72382813 4.44570312 -8.06640625 4.16015625 C-7.24011719 3.79792969 -6.41382813 3.43570313 -5.5625 3.0625 C-4.73878906 2.70285156 -3.91507813 2.34320313 -3.06640625 1.97265625 C-1.05589883 1.16877677 -1.05589883 1.16877677 0 0 Z " fill="#BE2A39" transform="translate(164,188)"/>
<path d="M0 0 C0.66 0.33 1.32 0.66 2 1 C0.68 3.97 -0.64 6.94 -2 10 C-3.32 9.67 -4.64 9.34 -6 9 C-6 9.66 -6 10.32 -6 11 C-6.66 10.67 -7.32 10.34 -8 10 C-7.04367001 8.70684939 -6.08486149 7.41553147 -5.125 6.125 C-4.59132812 5.40570313 -4.05765625 4.68640625 -3.5078125 3.9453125 C-2 2 -2 2 0 0 Z " fill="#CF3E3B" transform="translate(184,94)"/>
<path d="M0 0 C0.99 0.33 1.98 0.66 3 1 C3.33 2.65 3.66 4.3 4 6 C5.65 5.34 7.3 4.68 9 4 C8.67 5.32 8.34 6.64 8 8 C5.125 8.125 5.125 8.125 2 8 C0 6 0 6 -0.125 2.875 C-0.08375 1.92625 -0.0425 0.9775 0 0 Z " fill="#EFE6D9" transform="translate(94,114)"/>
<path d="M0 0 C2.375 0.25 2.375 0.25 5 1 C6.3125 3.0625 6.3125 3.0625 7 5 C5.25 5.6875 5.25 5.6875 3 6 C0.75 4.5625 0.75 4.5625 -1 3 C-0.67 2.01 -0.34 1.02 0 0 Z M-2 3 C-1.67 3.66 -1.34 4.32 -1 5 C-0.34 5 0.32 5 1 5 C0.67 5.66 0.34 6.32 0 7 C-0.99 6.01 -1.98 5.02 -3 4 C-2.67 3.67 -2.34 3.34 -2 3 Z " fill="#D94631" transform="translate(187,47)"/>
<path d="M0 0 C0.99386719 0.00902344 1.98773438 0.01804687 3.01171875 0.02734375 C4.15060547 0.04474609 4.15060547 0.04474609 5.3125 0.0625 C5.3125 1.0525 5.3125 2.0425 5.3125 3.0625 C0.6925 3.0625 -3.9275 3.0625 -8.6875 3.0625 C-8.6875 2.4025 -8.6875 1.7425 -8.6875 1.0625 C-5.53819107 0.01273036 -3.29935544 -0.03881595 0 0 Z " fill="#EE5D1E" transform="translate(66.6875,28.9375)"/>
<path d="M0 0 C0.33 0 0.66 0 1 0 C1.4726477 8.19256018 1.4726477 8.19256018 -0.5 11.5625 C-0.995 12.036875 -1.49 12.51125 -2 13 C-3 12 -3 12 -3.09765625 10.15234375 C-3.06510417 8.1015625 -3.03255208 6.05078125 -3 4 C-2.34 3.67 -1.68 3.34 -1 3 C-0.67 2.01 -0.34 1.02 0 0 Z " fill="#DB421F" transform="translate(106,99)"/>
<path d="M0 0 C-0.33 2.31 -0.66 4.62 -1 7 C-2.32 6.67 -3.64 6.34 -5 6 C-5 5.01 -5 4.02 -5 3 C-6.32 3.33 -7.64 3.66 -9 4 C-9 3.01 -9 2.02 -9 1 C-5.92677456 0.08941469 -3.19902639 -0.08886184 0 0 Z " fill="#DB7E77" transform="translate(149,127)"/>
<path d="M0 0 C0.66 0 1.32 0 2 0 C3.60080151 4.00200378 2.29279692 7.04556236 1 11 C-0.5 9.875 -0.5 9.875 -2 8 C-2.3125 4.9375 -2.3125 4.9375 -2 2 C-1.34 1.34 -0.68 0.68 0 0 Z " fill="#E3491C" transform="translate(74,101)"/>
<path d="M0 0 C2.64 0 5.28 0 8 0 C5.61042731 3.24299151 3.7952131 5.50902342 0 7 C0 4.69 0 2.38 0 0 Z " fill="#BB2535" transform="translate(176,176)"/>
<path d="M0 0 C0.33 0 0.66 0 1 0 C1 2.64 1 5.28 1 8 C-1.64 7.67 -4.28 7.34 -7 7 C-4.66666667 4.66666667 -2.33333333 2.33333333 0 0 Z " fill="#EA692C" transform="translate(55,32)"/>
<path d="M0 0 C3.3 0 6.6 0 10 0 C10 0.66 10 1.32 10 2 C10.66 2.66 11.32 3.32 12 4 C9.23735711 4.59732819 6.83967231 5 4 5 C4 4.34 4 3.68 4 3 C2.68 2.67 1.36 2.34 0 2 C0 1.34 0 0.68 0 0 Z " fill="#C63735" transform="translate(180,112)"/>
<path d="M0 0 C1.32 0 2.64 0 4 0 C3.45276317 3.37462715 2.9451 5.08235 1 8 C1 7.34 1 6.68 1 6 C-0.32 5.34 -1.64 4.68 -3 4 C-1.75 2 -1.75 2 0 0 Z " fill="#E6592C" transform="translate(57,96)"/>
<path d="M0 0 C2.31 0 4.62 0 7 0 C3.375 5.75 3.375 5.75 0 8 C0 5.36 0 2.72 0 0 Z " fill="#BE2738" transform="translate(184,168)"/>
<path d="M0 0 C1.5 1.0625 1.5 1.0625 3 3 C3.1875 6.6875 3.1875 6.6875 3 10 C3.66 10.33 4.32 10.66 5 11 C4.01 11 3.02 11 2 11 C0.68 7.7 -0.64 4.4 -2 1 C-1.34 0.67 -0.68 0.34 0 0 Z " fill="#E3512C" transform="translate(28,144)"/>
<path d="M0 0 C2.31 0 4.62 0 7 0 C7 0.99 7 1.98 7 3 C0.6 4.23076923 0.6 4.23076923 -2.4375 3.0625 C-2.953125 2.711875 -3.46875 2.36125 -4 2 C-2.68 2 -1.36 2 0 2 C0 1.34 0 0.68 0 0 Z " fill="#F5DED2" transform="translate(48,124)"/>
<path d="M0 0 C0.66 0 1.32 0 2 0 C2.33 0.99 2.66 1.98 3 3 C2.67 3.66 2.34 4.32 2 5 C1.34 5 0.68 5 0 5 C0 5.99 0 6.98 0 8 C-4.455 8.495 -4.455 8.495 -9 9 C-7.68 8.34 -6.36 7.68 -5 7 C-2.33962479 4.64366767 -1.13593805 3.40781414 0 0 Z " fill="#CF4639" transform="translate(141,110)"/>
<path d="M0 0 C3 1 3 1 4.125 2.75 C6.48204159 8.81096408 6.48204159 8.81096408 5.0625 12.3125 C4.5365625 13.1478125 4.5365625 13.1478125 4 14 C3.51171875 12.01432292 3.0234375 10.02864583 2.53515625 8.04296875 C1.74371378 5.02162268 1.24603464 3.24603464 -1 1 C-0.67 0.67 -0.34 0.34 0 0 Z " fill="#CF3322" transform="translate(162,88)"/>
<path d="M0 0 C0.66 0 1.32 0 2 0 C2.33 0.33 2.66 0.66 3 1 C3.99 1 4.98 1 6 1 C5.25 5.75 5.25 5.75 3 8 C1.02 4.535 1.02 4.535 -1 1 C-0.67 0.67 -0.34 0.34 0 0 Z " fill="#F7ECE9" transform="translate(193,48)"/>
<path d="M0 0 C1.86323318 0.25288812 3.71708432 0.57690153 5.5625 0.9375 C6.57441406 1.13214844 7.58632812 1.32679687 8.62890625 1.52734375 C9.80259766 1.76130859 9.80259766 1.76130859 11 2 C11 2.33 11 2.66 11 3 C4.07 4.485 4.07 4.485 -3 6 C-1 1 -1 1 0 0 Z " fill="#F5EEE5" transform="translate(90,10)"/>
<path d="M0 0 C0 0.99 0 1.98 0 3 C1.32 3.66 2.64 4.32 4 5 C1.83032311 5.95465783 0.43671207 6.14401212 -1.82421875 5.3984375 C-3.5684743 4.64129615 -5.28627131 3.82390802 -7 3 C-3.375 0 -3.375 0 0 0 Z " fill="#D13A37" transform="translate(80,193)"/>
<path d="M0 0 C1.32 0.66 2.64 1.32 4 2 C4 2.99 4 3.98 4 5 C2.54207116 5.05399736 1.08357288 5.09279177 -0.375 5.125 C-1.18710937 5.14820312 -1.99921875 5.17140625 -2.8359375 5.1953125 C-5 5 -5 5 -7 3 C-5.5459375 2.814375 -5.5459375 2.814375 -4.0625 2.625 C-2.5465625 2.315625 -2.5465625 2.315625 -1 2 C-0.67 1.34 -0.34 0.68 0 0 Z " fill="#E34E2C" transform="translate(52,119)"/>
<path d="M0 0 C0.33 1.32 0.66 2.64 1 4 C1.66 4 2.32 4 3 4 C4.0625 6.375 4.0625 6.375 5 9 C4.67 9.66 4.34 10.32 4 11 C3.01 11 2.02 11 1 11 C0.30710631 7.27569643 -0.11144596 3.78916254 0 0 Z " fill="#CF342C" transform="translate(200,69)"/>
<path d="M0 0 C0.66 0.33 1.32 0.66 2 1 C0.73427767 2.15147661 -0.53777906 3.29599314 -1.8125 4.4375 C-2.52019531 5.07558594 -3.22789062 5.71367187 -3.95703125 6.37109375 C-6 8 -6 8 -9 9 C-9.33 8.01 -9.66 7.02 -10 6 C-9.36191406 5.65066406 -8.72382813 5.30132812 -8.06640625 4.94140625 C-7.24011719 4.48636719 -6.41382813 4.03132812 -5.5625 3.5625 C-4.73878906 3.11003906 -3.91507813 2.65757812 -3.06640625 2.19140625 C-1.07691202 1.16337603 -1.07691202 1.16337603 0 0 Z " fill="#F3EAE8" transform="translate(169,188)"/>
<path d="M0 0 C0.66 1.32 1.32 2.64 2 4 C0.6875 6 0.6875 6 -1 8 C-1.99 8 -2.98 8 -4 8 C-3.67 5.69 -3.34 3.38 -3 1 C-2.01 1.33 -1.02 1.66 0 2 C0 1.34 0 0.68 0 0 Z " fill="#D33624" transform="translate(158,94)"/>
<path d="M0 0 C1.98 0 3.96 0 6 0 C6 1.65 6 3.3 6 5 C3 5 3 5 0 4 C0 2.68 0 1.36 0 0 Z " fill="#E7511E" transform="translate(58,88)"/>
<path d="M0 0 C0.66 0.33 1.32 0.66 2 1 C1.6875 2.9375 1.6875 2.9375 1 5 C0.01 5.33 -0.98 5.66 -2 6 C-2.33 6.66 -2.66 7.32 -3 8 C-3.99 7.67 -4.98 7.34 -6 7 C-4.02 4.69 -2.04 2.38 0 0 Z " fill="#EF713E" transform="translate(46,40)"/>
<path d="M0 0 C1.32 0.33 2.64 0.66 4 1 C4 2.98 4 4.96 4 7 C2.68 7 1.36 7 0 7 C0 4.69 0 2.38 0 0 Z " fill="#E8B6B5" transform="translate(161,127)"/>
<path d="M0 0 C0.66 0.66 1.32 1.32 2 2 C0.85331791 5.44004627 0.12056696 6.26635169 -3 8 C-5.75 7.6875 -5.75 7.6875 -8 7 C-7.34 6.67 -6.68 6.34 -6 6 C-5.67 5.01 -5.34 4.02 -5 3 C-5 3.99 -5 4.98 -5 6 C-2.12579877 3.28395285 -2.12579877 3.28395285 0 0 Z " fill="#F2D5C9" transform="translate(154,109)"/>
<path d="M0 0 C0.66 0.33 1.32 0.66 2 1 C0.52307692 5.67692308 0.52307692 5.67692308 -2.125 7.3125 C-3.053125 7.6528125 -3.053125 7.6528125 -4 8 C-4.25 5.6875 -4.25 5.6875 -4 3 C-2 1.1875 -2 1.1875 0 0 Z " fill="#CC3128" transform="translate(163,106)"/>
<path d="M0 0 C0.66 0 1.32 0 2 0 C1.56802365 4.7517398 0.67230705 6.92000054 -3 10 C-4.32 9.34 -5.64 8.68 -7 8 C-5.824375 7.4121875 -5.824375 7.4121875 -4.625 6.8125 C-1.64843582 4.75725331 -1.01176437 3.40320742 0 0 Z " fill="#F2CDCA" transform="translate(192,103)"/>
<path d="M0 0 C2.97 0.99 5.94 1.98 9 3 C8.34 3.66 7.68 4.32 7 5 C4.27130593 4.96712417 1.7033382 4.43602229 -1 4 C-0.67 2.68 -0.34 1.36 0 0 Z " fill="#E7552F" transform="translate(145,16)"/>
<path d="M0 0 C0.99 0 1.98 0 3 0 C3 2.31 3 4.62 3 7 C1.68 6.67 0.36 6.34 -1 6 C-1.042721 4.33388095 -1.04063832 2.66617115 -1 1 C-0.67 0.67 -0.34 0.34 0 0 Z " fill="#E4A8A3" transform="translate(175,127)"/>
<path d="M0 0 C-0.99 0.33 -1.98 0.66 -3 1 C-3.33 1.99 -3.66 2.98 -4 4 C-6.97 3.67 -9.94 3.34 -13 3 C-8.8341563 0.22277086 -4.9360889 -1.89849573 0 0 Z " fill="#EF642F" transform="translate(92,16)"/>
<path d="M0 0 C0.53625 0.37125 1.0725 0.7425 1.625 1.125 C0.965 1.785 0.305 2.445 -0.375 3.125 C-0.375 3.785 -0.375 4.445 -0.375 5.125 C-4.06254757 4.62668276 -5.97990662 4.02432357 -8.375 1.125 C-2.95961538 -1.09038462 -2.95961538 -1.09038462 0 0 Z " fill="#E55942" transform="translate(84.375,122.875)"/>
<path d="M0 0 C0.66 0.99 1.32 1.98 2 3 C1.34 3 0.68 3 0 3 C-0.33 3.66 -0.66 4.32 -1 5 C-1 4.34 -1 3.68 -1 3 C-1.61875 2.87625 -2.2375 2.7525 -2.875 2.625 C-5 2 -5 2 -7 0 C-4.27584084 -1.36207958 -2.87220643 -0.86166193 0 0 Z " fill="#F5DAD0" transform="translate(62,93)"/>
<path d="M0 0 C0.33 0 0.66 0 1 0 C1.66 3.3 2.32 6.6 3 10 C2.34 10 1.68 10 1 10 C1 10.66 1 11.32 1 12 C0.34 12 -0.32 12 -1 12 C-0.67 8.04 -0.34 4.08 0 0 Z " fill="#ED713B" transform="translate(20,88)"/>
<path d="M0 0 C1.21816406 0.03480469 1.21816406 0.03480469 2.4609375 0.0703125 C3.68683594 0.09738281 3.68683594 0.09738281 4.9375 0.125 C5.87722656 0.15980469 5.87722656 0.15980469 6.8359375 0.1953125 C6.8359375 1.1853125 6.8359375 2.1753125 6.8359375 3.1953125 C3.2059375 2.8653125 -0.4240625 2.5353125 -4.1640625 2.1953125 C-2.1640625 0.1953125 -2.1640625 0.1953125 0 0 Z " fill="#C73936" transform="translate(97.1640625,200.8046875)"/>
<path d="M0 0 C2 1 2 1 3.125 4.0625 C3.41375 5.031875 3.7025 6.00125 4 7 C2.68 7.33 1.36 7.66 0 8 C-0.98120464 4.94736336 -0.98120464 3.05263664 0 0 Z M-3 6 C-2.01 6.495 -2.01 6.495 -1 7 C-1.99 7.495 -1.99 7.495 -3 8 C-3 7.34 -3 6.68 -3 6 Z " fill="#F7EAE6" transform="translate(28,151)"/>
<path d="M0 0 C1.32 0.99 2.64 1.98 4 3 C4.66 2.34 5.32 1.68 6 1 C6 1.99 6 2.98 6 4 C6.66 4.33 7.32 4.66 8 5 C6.741875 5.04125 5.48375 5.0825 4.1875 5.125 C3.47980469 5.14820313 2.77210937 5.17140625 2.04296875 5.1953125 C0 5 0 5 -3 3 C-2.01 2.67 -1.02 2.34 0 2 C0 1.34 0 0.68 0 0 Z " fill="#E65435" transform="translate(58,123)"/>
<path d="M0 0 C1.32 0.33 2.64 0.66 4 1 C3.34 1 2.68 1 2 1 C2 1.66 2 2.32 2 3 C2.66 3.33 3.32 3.66 4 4 C0.7 4.33 -2.6 4.66 -6 5 C-6 4.34 -6 3.68 -6 3 C-4.02 2.67 -2.04 2.34 0 2 C0 1.34 0 0.68 0 0 Z " fill="#E43A29" transform="translate(108,122)"/>
<path d="M0 0 C0.33 0 0.66 0 1 0 C1.02693575 2.12493141 1.04636628 4.24995912 1.0625 6.375 C1.07410156 7.55835937 1.08570313 8.74171875 1.09765625 9.9609375 C1 13 1 13 0 15 C-0.66 15 -1.32 15 -2 15 C-2 13.02 -2 11.04 -2 9 C-1.67 9 -1.34 9 -1 9 C-0.67 6.03 -0.34 3.06 0 0 Z " fill="#F14F1C" transform="translate(23,115)"/>
<path d="M0 0 C1 2 2 4 3 6 C1.35 5.67 -0.3 5.34 -2 5 C-2.33 6.32 -2.66 7.64 -3 9 C-3.66 8.67 -4.32 8.34 -5 8 C-5 7.34 -5 6.68 -5 6 C-5.66 6 -6.32 6 -7 6 C-6.67 5.34 -6.34 4.68 -6 4 C-4.02 4 -2.04 4 0 4 C0 2.68 0 1.36 0 0 Z " fill="#DB583E" transform="translate(93,116)"/>
<path d="M0 0 C0.99 0.33 1.98 0.66 3 1 C3.185625 2.2065625 3.185625 2.2065625 3.375 3.4375 C3.58125 4.283125 3.7875 5.12875 4 6 C4.66 6.33 5.32 6.66 6 7 C4.33388095 7.042721 2.66617115 7.04063832 1 7 C0 6 0 6 -0.0625 2.9375 C-0.041875 1.968125 -0.02125 0.99875 0 0 Z " fill="#F7F2EE" transform="translate(181,106)"/>
<path d="M0 0 C0.99 0 1.98 0 3 0 C2.67 3.3 2.34 6.6 2 10 C1.34 10 0.68 10 0 10 C-1.125 2.25 -1.125 2.25 0 0 Z " fill="#D7311F" transform="translate(143,106)"/>
<path d="M0 0 C1.67542976 0.28604898 3.34385343 0.61781233 5 1 C2.525 4.465 2.525 4.465 0 8 C-1 4 -1 4 -1 1 C-0.67 0.67 -0.34 0.34 0 0 Z " fill="#F6E1D7" transform="translate(112,100)"/>
<path d="M0 0 C2.125 0.375 2.125 0.375 4 1 C4 1.99 4 2.98 4 4 C3.34 4 2.68 4 2 4 C1.34 4.66 0.68 5.32 0 6 C0 5.34 0 4.68 0 4 C-1.98 4.99 -1.98 4.99 -4 6 C-2.84826645 3.53199953 -1.95216435 1.95216435 0 0 Z " fill="#F0E3D6" transform="translate(98,100)"/>
<path d="M0 0 C0 1.32 0 2.64 0 4 C-3.3 4.66 -6.6 5.32 -10 6 C-4 0 -4 0 0 0 Z " fill="#E96A32" transform="translate(69,24)"/>
<path d="M0 0 C0.66 0 1.32 0 2 0 C1.19642857 8.03571429 1.19642857 8.03571429 -1 12 C-1.02687279 10.18757948 -1.04633715 8.37504767 -1.0625 6.5625 C-1.07410156 5.55316406 -1.08570313 4.54382813 -1.09765625 3.50390625 C-1 1 -1 1 0 0 Z " fill="#C1343B" transform="translate(209,122)"/>
<path d="M0 0 C1.5625 1.6875 1.5625 1.6875 3 4 C2.6875 6.75 2.6875 6.75 2 9 C1.01 8.67 0.02 8.34 -1 8 C-0.67 5.36 -0.34 2.72 0 0 Z " fill="#F5E0DD" transform="translate(171,105)"/>
<path d="M0 0 C2.625 0.375 2.625 0.375 5 1 C3.6875 3 3.6875 3 2 5 C1.01 5 0.02 5 -1 5 C-1.33 4.01 -1.66 3.02 -2 2 C-1.34 1.34 -0.68 0.68 0 0 Z " fill="#F8F3EE" transform="translate(53,94)"/>
<path d="M0 0 C2.375 0.3125 2.375 0.3125 5 1 C5.66 1.99 6.32 2.98 7 4 C4.36 4 1.72 4 -1 4 C-0.67 2.68 -0.34 1.36 0 0 Z " fill="#F25D1F" transform="translate(32,60)"/>
<path d="M0 0 C2.91517292 1.07401108 4.77810176 1.77810176 7 4 C5.02 4.66 3.04 5.32 1 6 C0.4465236 3.92446352 0 2.15634036 0 0 Z " fill="#E24F2E" transform="translate(160,23)"/>
<path d="M0 0 C0.99 0.33 1.98 0.66 3 1 C3 1.66 3 2.32 3 3 C0.66666667 5.33333333 -1.66666667 7.66666667 -4 10 C-2.8905928 6.51329166 -1.73662334 3.22515763 0 0 Z " fill="#F7E9E5" transform="translate(203,148)"/>
<path d="M0 0 C0.33 0 0.66 0 1 0 C1 2.64 1 5.28 1 8 C0.01 8 -0.98 8 -2 8 C-2.66 6.68 -3.32 5.36 -4 4 C-2.68 3.67 -1.36 3.34 0 3 C0 2.01 0 1.02 0 0 Z " fill="#CF2B24" transform="translate(169,107)"/>
<path d="M0 0 C0.66 0.33 1.32 0.66 2 1 C1.625 3.9375 1.625 3.9375 1 7 C0.01 7.495 0.01 7.495 -1 8 C-1.625 5.125 -1.625 5.125 -2 2 C-1.34 1.34 -0.68 0.68 0 0 Z " fill="#F6F6F2" transform="translate(118,109)"/>
<path d="M0 0 C0.66 0 1.32 0 2 0 C2 0.99 2 1.98 2 3 C2.66 3 3.32 3 4 3 C2.25 6.875 2.25 6.875 0 8 C-0.98120464 4.94736336 -0.98120464 3.05263664 0 0 Z " fill="#E14F30" transform="translate(94,96)"/>
<path d="M0 0 C0.33 0 0.66 0 1 0 C1 2.64 1 5.28 1 8 C-0.65 7.67 -2.3 7.34 -4 7 C-2.68 4.69 -1.36 2.38 0 0 Z " fill="#EE6830" transform="translate(39,48)"/>
<path d="M0 0 C-0.33 1.65 -0.66 3.3 -1 5 C-3.31 5 -5.62 5 -8 5 C-5.72541886 1.64228499 -4.30291326 0 0 0 Z " fill="#E44621" transform="translate(168,27)"/>
<path d="M0 0 C2.64 1.65 5.28 3.3 8 5 C4 6 4 6 0 6 C0 4 0 2 0 0 Z " fill="#F5F0EA" transform="translate(56,185)"/>
<path d="M0 0 C0.99 0.33 1.98 0.66 3 1 C2.125 6.75 2.125 6.75 1 9 C0.34 9 -0.32 9 -1 9 C-0.67 6.03 -0.34 3.06 0 0 Z " fill="#E04B17" transform="translate(63,105)"/>
<path d="M0 0 C0.125 3.375 0.125 3.375 0 7 C-0.66 7.66 -1.32 8.32 -2 9 C-3.35439668 6.29120665 -3.06501451 3.99066732 -3 1 C-1 0 -1 0 0 0 Z " fill="#F2F4F1" transform="translate(89,108)"/>
<path d="M0 0 C0.99 0.495 0.99 0.495 2 1 C2 1.66 2 2.32 2 3 C2.99 3.33 3.98 3.66 5 4 C4.67 4.99 4.34 5.98 4 7 C3.34 6.67 2.68 6.34 2 6 C1.34 6.66 0.68 7.32 0 8 C0 5.36 0 2.72 0 0 Z " fill="#EC461F" transform="translate(65,96)"/>
<path d="M0 0 C1.98 0.66 3.96 1.32 6 2 C5.01 2.33 4.02 2.66 3 3 C3 3.66 3 4.32 3 5 C1.68 5 0.36 5 -1 5 C-1.33 4.01 -1.66 3.02 -2 2 C-1.34 2 -0.68 2 0 2 C0 1.34 0 0.68 0 0 Z " fill="#D33825" transform="translate(148,91)"/>
<path d="M0 0 C1.32 0 2.64 0 4 0 C4.625 2.875 4.625 2.875 5 6 C4.34 6.66 3.68 7.32 3 8 C0 2.25 0 2.25 0 0 Z " fill="#FAF4EF" transform="translate(26,56)"/>
<path d="M0 0 C0 0.66 0 1.32 0 2 C-2.1385485 4.1385485 -3.13275314 4.42655063 -6 5 C-6 4.34 -6 3.68 -6 3 C-6.66 2.67 -7.32 2.34 -8 2 C-2.25 0 -2.25 0 0 0 Z " fill="#F2E4E6" transform="translate(146,200)"/>
<path d="M0 0 C0.99 0 1.98 0 3 0 C2.67 0.99 2.34 1.98 2 3 C2.38932856 5.14255793 2.38932856 5.14255793 3 7 C1.68 7 0.36 7 -1 7 C-1 3 -1 3 0 0 Z " fill="#E9C0B8" transform="translate(183,127)"/>
<path d="M0 0 C0.99 0.33 1.98 0.66 3 1 C2.67 3.31 2.34 5.62 2 8 C1.34 8 0.68 8 0 8 C0 5.36 0 2.72 0 0 Z " fill="#F3F9F6" transform="translate(146,107)"/>
<path d="M0 0 C0.99 0.33 1.98 0.66 3 1 C3 2.65 3 4.3 3 6 C1.68 6 0.36 6 -1 6 C-1.042721 4.33388095 -1.04063832 2.66617115 -1 1 C-0.67 0.67 -0.34 0.34 0 0 Z " fill="#DA3B21" transform="translate(123,106)"/>
<path d="M0 0 C0.99 0.33 1.98 0.66 3 1 C2.67 2.32 2.34 3.64 2 5 C1.34 5 0.68 5 0 5 C0 5.66 0 6.32 0 7 C-0.66 7 -1.32 7 -2 7 C-2 5.68 -2 4.36 -2 3 C-1.34 3 -0.68 3 0 3 C0 2.01 0 1.02 0 0 Z " fill="#F6F3F2" transform="translate(99,103)"/>
<path d="M0 0 C1.32 1.65 2.64 3.3 4 5 C3.67 5.66 3.34 6.32 3 7 C2.34 6.67 1.68 6.34 1 6 C0.34 6.66 -0.32 7.32 -1 8 C-2.2077558 4.37673261 -1.54311128 3.35853631 0 0 Z " fill="#D9413F" transform="translate(162,101)"/>
<path d="M0 0 C0.33 0 0.66 0 1 0 C1.433125 1.423125 1.433125 1.423125 1.875 2.875 C2.76825109 6.05211578 2.76825109 6.05211578 5 8 C4.34 8 3.68 8 3 8 C3 9.65 3 11.3 3 13 C2.67 13 2.34 13 2 13 C2 11.02 2 9.04 2 7 C1.01 7 0.02 7 -1 7 C-0.67 4.69 -0.34 2.38 0 0 Z " fill="#CD4443" transform="translate(189,93)"/>
<path d="M0 0 C0.99 0.33 1.98 0.66 3 1 C2.67 2.98 2.34 4.96 2 7 C1.34 6.67 0.68 6.34 0 6 C0 5.34 0 4.68 0 4 C-0.66 3.67 -1.32 3.34 -2 3 C-1.34 2.01 -0.68 1.02 0 0 Z " fill="#F3ECDE" transform="translate(62,96)"/>
<path d="M0 0 C1.98 0 3.96 0 6 0 C5.6875 1.875 5.6875 1.875 5 4 C4.01 4.66 3.02 5.32 2 6 C2 4.35 2 2.7 2 1 C1.34 0.67 0.68 0.34 0 0 Z " fill="#CF5149" transform="translate(177,91)"/>
<path d="M0 0 C2.31 0.33 4.62 0.66 7 1 C6.01 1.495 6.01 1.495 5 2 C4.67 2.99 4.34 3.98 4 5 C2 3.625 2 3.625 0 2 C0 1.34 0 0.68 0 0 Z " fill="#F7E1D6" transform="translate(37,120)"/>
<path d="M0 0 C0.33 0.66 0.66 1.32 1 2 C1.66 2.33 2.32 2.66 3 3 C1.02 5.97 1.02 5.97 -1 9 C-2.25541557 5.23375329 -1.37061958 3.62811066 0 0 Z " fill="#DA4138" transform="translate(148,94)"/>
<path d="M0 0 C1 2 1 2 0.44140625 4.1640625 C0.15136719 4.97617188 -0.13867188 5.78828125 -0.4375 6.625 C-0.72496094 7.44226563 -1.01242188 8.25953125 -1.30859375 9.1015625 C-1.53675781 9.72804688 -1.76492187 10.35453125 -2 11 C-2.66 10.01 -3.32 9.02 -4 8 C-3.06810009 4.89366697 -1.80806372 2.71209558 0 0 Z " fill="#F8E1D7" transform="translate(23,77)"/>
<path d="M0 0 C0.99 0 1.98 0 3 0 C3 1.65 3 3.3 3 5 C0.03 4.505 0.03 4.505 -3 4 C-2.67 3.34 -2.34 2.68 -2 2 C-1.34 2 -0.68 2 0 2 C0 1.34 0 0.68 0 0 Z " fill="#F2DED4" transform="translate(141,11)"/>
<path d="M0 0 C0.66 0 1.32 0 2 0 C2.33 1.65 2.66 3.3 3 5 C1.68 5.33 0.36 5.66 -1 6 C-0.67 4.02 -0.34 2.04 0 0 Z " fill="#E0532F" transform="translate(67,117)"/>
<path d="M0 0 C0.66 0 1.32 0 2 0 C2 2.64 2 5.28 2 8 C1.01 7.67 0.02 7.34 -1 7 C-0.67 4.69 -0.34 2.38 0 0 Z " fill="#F9F7F9" transform="translate(127,108)"/>
<path d="M0 0 C0.33 0 0.66 0 1 0 C3 6.625 3 6.625 3 10 C2.01 10 1.02 10 0 10 C-1.2380014 6.42355152 -0.74926071 3.66305234 0 0 Z " fill="#E15534" transform="translate(71,104)"/>
<path d="M0 0 C0.66 0.33 1.32 0.66 2 1 C1.67 2.65 1.34 4.3 1 6 C0.01 5.67 -0.98 5.34 -2 5 C-1.125 1.125 -1.125 1.125 0 0 Z " fill="#E7B3A5" transform="translate(138,99)"/>
<path d="M0 0 C1.98 0.495 1.98 0.495 4 1 C4 4 4 4 2 7 C-0.07538031 3.88692954 0 3.52734766 0 0 Z " fill="#DC4D3D" transform="translate(152,92)"/>
<path d="M0 0 C0.66 0 1.32 0 2 0 C3.76462683 3.08809695 4 4.23312136 4 8 C3.01 7.67 2.02 7.34 1 7 C1 5.68 1 4.36 1 3 C0.34 2.34 -0.32 1.68 -1 1 C-0.67 0.67 -0.34 0.34 0 0 Z " fill="#DB3930" transform="translate(165,88)"/>
<path d="M0 0 C0.66 0.33 1.32 0.66 2 1 C0.125 6.75 0.125 6.75 -1 9 C-1.66 9 -2.32 9 -3 9 C-2.01 6.03 -1.02 3.06 0 0 Z " fill="#EA6B3C" transform="translate(28,65)"/>
<path d="M0 0 C2.4375 1.25 2.4375 1.25 3.4375 4.25 C-2.3125 2.5 -2.3125 2.5 -4.5625 0.25 C-2.5625 -0.75 -2.5625 -0.75 0 0 Z " fill="#F6EEE4" transform="translate(160.5625,19.75)"/>
<path d="M0 0 C0.33 0.99 0.66 1.98 1 3 C-2.375 3.125 -2.375 3.125 -6 3 C-6.66 2.34 -7.32 1.68 -8 1 C-5.10765685 0.17361624 -3.11257569 0 0 0 Z " fill="#EB612B" transform="translate(100,13)"/>
<path d="M0 0 C0 0.66 0 1.32 0 2 C-2.875 2.125 -2.875 2.125 -6 2 C-6.66 1.34 -7.32 0.68 -8 0 C-4.94736336 -0.98120464 -3.05263664 -0.98120464 0 0 Z " fill="#F1ECE6" transform="translate(136,204)"/>
<path d="M0 0 C1.65 0 3.3 0 5 0 C5 1.65 5 3.3 5 5 C3.35 4.67 1.7 4.34 0 4 C0 2.68 0 1.36 0 0 Z " fill="#D7573A" transform="translate(96,122)"/>
<path d="M0 0 C1.65 1.65 3.3 3.3 5 5 C3.02 5.33 1.04 5.66 -1 6 C-1 3 -1 3 0 0 Z " fill="#E25732" transform="translate(43,112)"/>
<path d="M0 0 C1.32 0.33 2.64 0.66 4 1 C3.67 2.98 3.34 4.96 3 7 C2.34 7 1.68 7 1 7 C0.67 4.69 0.34 2.38 0 0 Z " fill="#E24918" transform="translate(84,102)"/>
<path d="M0 0 C0.33 0.66 0.66 1.32 1 2 C1.66 2 2.32 2 3 2 C3 4.64 3 7.28 3 10 C2.67 10 2.34 10 2 10 C1.87625 9.195625 1.7525 8.39125 1.625 7.5625 C1.315625 6.2940625 1.315625 6.2940625 1 5 C0.34 4.67 -0.32 4.34 -1 4 C-0.67 2.68 -0.34 1.36 0 0 Z " fill="#DD574B" transform="translate(124,102)"/>
<path d="M0 0 C0.66 0 1.32 0 2 0 C1.34 1.98 0.68 3.96 0 6 C-0.99 5.67 -1.98 5.34 -3 5 C-1.125 1.125 -1.125 1.125 0 0 Z " fill="#DE4628" transform="translate(96,104)"/>
<path d="M0 0 C0.99 0 1.98 0 3 0 C3 1.98 3 3.96 3 6 C2.01 5.67 1.02 5.34 0 5 C0 3.35 0 1.7 0 0 Z " fill="#D02D24" transform="translate(188,100)"/>
<path d="M0 0 C2.64 0.33 5.28 0.66 8 1 C8 1.66 8 2.32 8 3 C2.25 3.125 2.25 3.125 0 2 C0 1.34 0 0.68 0 0 Z " fill="#ED4924" transform="translate(144,20)"/>
</svg>
